<svg width="511.984" height="511.984" xmlns="http://www.w3.org/2000/svg">

 <g>
  <title>background</title>
  <rect fill="none" id="canvas_background" height="402" width="582" y="-1" x="-1"/>
 </g>
 <g>
  <title>Layer 1</title>
  <g id="svg_1">
   <g id="svg_2">
    <rect fill="#ffffff" id="svg_3" height="15.587" width="48.04" transform="matrix(0.7071,-0.7071,0.7071,0.7071,106.9369,351.1636) " y="38.704" x="453.341"/>
   </g>
  </g>
  <g id="svg_4">
   <g id="svg_5">
    <rect fill="#ffffff" id="svg_6" height="16.013" width="15.587" transform="matrix(0.7071,-0.7071,0.7071,0.7071,78.6233,339.4428) " y="66.808" x="442.674227"/>
   </g>
  </g>
  <g id="svg_7">
   <g id="svg_8">
    <rect fill="#ffffff" id="svg_9" height="15.587" width="48.04" transform="matrix(0.7071,-0.7071,0.7071,0.7071,116.8692,327.1383) " y="14.702" x="429.306"/>
   </g>
  </g>
  <g id="svg_10">
   <g id="svg_11">
    <rect fill="#ffffff" id="svg_12" height="16.013" width="15.587" transform="matrix(0.7071,-0.7071,0.7071,0.7071,88.5849,315.422) " y="42.773" x="417.248"/>
   </g>
  </g>
  <g id="svg_13">
   <g id="svg_14">
    <rect fill="#ffffff" id="svg_15" height="15.587" width="329.412" y="294.402" x="94.108"/>
   </g>
  </g>
  <g id="svg_16">
   <g id="svg_17">
    <rect fill="#ffffff" id="svg_18" height="15.587" width="15.587" y="319.303" x="247.903"/>
   </g>
  </g>
  <g id="svg_19">
   <g id="svg_20">
    <rect fill="#ffffff" id="svg_21" height="15.587" width="16.626" y="319.303" x="224.002"/>
   </g>
  </g>
  <g id="svg_22">
   <g id="svg_23">
    <rect fill="#ffffff" id="svg_24" height="15.587" width="16.626" y="319.303" x="270.764"/>
   </g>
  </g>
  <g id="svg_25">
   <g id="svg_26">
    <path fill="#ffffff" id="svg_27" d="m460.042,264.193c-3.431,-23.031 -23.334,-40.754 -47.303,-40.754c-1.718,0 -3.45,0.098 -5.146,0.291c-7,0.794 -13.367,-1.348 -17.46,-5.882c-10.574,-11.713 -25.683,-18.431 -41.451,-18.431c-3.525,0 -7.058,0.337 -10.5,1.001c-1.369,0.263 -2.73,0.376 -4.066,0.353l109.127,-109.126l-11.022,-11.021l-112.509,112.508c-3.707,-4.961 -7.825,-9.542 -12.29,-13.709l111.8,-111.8l-11.022,-11.021l-113.017,113.016c-17.09,-11.701 -37.517,-18.242 -58.599,-18.242c-29.997,0 -58.525,13.025 -78.27,35.734c-4.41,5.071 -11.244,7.256 -18.276,5.845c-5.103,-1.025 -10.336,-1.544 -15.553,-1.544c-41.647,0 -75.93,32.052 -79.526,72.781l-32.831,0l0,7.794c0,132.335 107.709,239.998 240.045,239.998s240.045,-107.663 240.045,-239.998l0,-7.794l-32.176,0l0,0.001zm-397.69,-9.355l15.241,0l0,-15.587l-8.801,0c11.114,-19.256 31.906,-32.254 55.691,-32.254c4.188,0 8.388,0.417 12.485,1.24c12.408,2.491 25.092,-1.687 33.105,-10.9c11.408,-13.12 26.262,-22.432 42.608,-27.055l0,12.854l15.587,0l0,-15.587l-1.776,0c3.332,-0.385 6.698,-0.587 10.088,-0.587c18.674,0 36.294,5.715 50.958,16.174l-3.156,0l0,15.587l15.587,0l0,-4.825c2.711,2.825 5.266,5.846 7.638,9.069c7.641,10.382 20.488,15.268 33.523,12.756c2.473,-0.477 5.012,-0.718 7.549,-0.718c11.366,0 22.257,4.843 29.881,13.289c7.505,8.313 18.731,12.294 30.791,10.924c1.115,-0.127 2.254,-0.191 3.385,-0.191c5.858,0 11.351,1.578 16.089,4.32l0,11.493l11.638,0c1.703,2.863 2.971,6.01 3.723,9.352l-46.535,0l0,-8.313l-16.627,0l0,8.313l-136.125,0l0,-8.313l-16.626,0l0,8.313l-167.659,0c0.351,-3.194 0.935,-6.317 1.738,-9.354zm413.337,41.567l-46.86,0l0,15.587l44.601,0c-18.919,104.721 -110.74,184.403 -220.831,184.403s-201.913,-79.682 -220.832,-184.403l45.828,0l0,-15.587l-48.087,0c-0.596,-5.486 -0.995,-11.031 -1.187,-16.627l448.554,0c-0.192,5.597 -0.59,11.141 -1.186,16.627z"/>
   </g>
  </g>
  <g id="svg_28">
   <g id="svg_29">
    <rect fill="#ffffff" id="svg_30" height="15.587" width="16.626" y="229.936" x="94.108"/>
   </g>
  </g>
  <g id="svg_31">
   <g id="svg_32">
    <rect fill="#ffffff" id="svg_33" height="15.587" width="15.587" y="215.388" x="120.087"/>
   </g>
  </g>
  <g id="svg_34">
   <g id="svg_35">
    <rect fill="#ffffff" id="svg_36" height="15.587" width="15.587" y="238.249" x="143.987"/>
   </g>
  </g>
  <g id="svg_37">
   <g id="svg_38">
    <rect fill="#ffffff" id="svg_39" height="15.587" width="16.626" y="215.388" x="166.849"/>
   </g>
  </g>
  <g id="svg_40">
   <g id="svg_41">
    <rect fill="#ffffff" id="svg_42" height="15.587" width="15.587" y="182.135" x="190.789"/>
   </g>
  </g>
  <g id="svg_43">
   <g id="svg_44">
    <rect fill="#ffffff" id="svg_45" height="15.587" width="14.548" y="182.135" x="239.629"/>
   </g>
  </g>
  <g id="svg_46">
   <g id="svg_47">
    <rect fill="#ffffff" id="svg_48" height="15.587" width="15.587" y="238.249" x="191.789"/>
   </g>
  </g>
  <g id="svg_49">
   <g id="svg_50">
    <rect fill="#ffffff" id="svg_51" height="15.587" width="16.626" y="215.388" x="231.276"/>
   </g>
  </g>
  <g id="svg_52">
   <g id="svg_53">
    <polygon fill="#ffffff" id="svg_54" points="295.739013671875,238.25100708007812 295.739013671875,223.7030029296875 279.1130065917969,223.7030029296875 279.1130065917969,239.2899932861328 295.739013671875,239.2899932861328 295.739013671875,253.83799743652344 310.2869873046875,253.83799743652344 310.2869873046875,238.25100708007812 "/>
   </g>
  </g>
  <g id="svg_55">
   <g id="svg_56">
    <polygon fill="#ffffff" id="svg_57" points="350.8529968261719,223.7030029296875 350.8529968261719,238.25100708007812 334.22698974609375,238.25100708007812 334.22698974609375,253.83799743652344 350.8529968261719,253.83799743652344 350.8529968261719,239.2899932861328 365.4020080566406,239.2899932861328 365.4020080566406,223.7030029296875 "/>
   </g>
  </g>
  <g id="svg_58"/>
  <g id="svg_59"/>
  <g id="svg_60"/>
  <g id="svg_61"/>
  <g id="svg_62"/>
  <g id="svg_63"/>
  <g id="svg_64"/>
  <g id="svg_65"/>
  <g id="svg_66"/>
  <g id="svg_67"/>
  <g id="svg_68"/>
  <g id="svg_69"/>
  <g id="svg_70"/>
  <g id="svg_71"/>
  <g id="svg_72"/>
 </g>
</svg>